#!OML:ASF H:\BreakDance\Project 1\Capture day 1\Session 1\Male.ASF
:FULLY-SPECIFIED
:DEGREES
608
root 3.12844 10.1635 -10.0597 60.4862 54.4959 -315.491
lowerback 19.18 -3.40722 2.56774
upperback 8.30339 -3.13916 6.40983
thorax -1.51812 -1.37685 6.02178
lowerneck -21.3497 -1.29396 -1.68584
upperneck 3.03842 -0.801317 -4.10341
head 4.2623 -0.658593 -1.1004
rclavicle -9.54166e-014 1.74931e-013
rhumerus 29.5865 -49.8155 -86.693
rradius 11.4913
rwrist -13.5922
rhand -11.9128 -47.2592
rfingers 7.12502
rthumb 14.141 283.242
lclavicle -9.54166e-014 1.74931e-013
lhumerus 90.0153 -8.79163 25.774
lradius 70.3527
lwrist 11.0644
lhand -28.3005 316.438
lfingers 7.12502
lthumb -1.67613 -13.5893
rfemur -114.304 -0.0481014 18.8323
rtibia 83.9915
rfoot -10.9065 -13.761
rtoes 27.8227
lfemur -47.3927 47.747 -18.7788
ltibia 114.428
lfoot -30.7873 11.8529
ltoes -52.5395
609
root 2.95515 10.0155 -10.0596 62.1239 57.7417 -312.62
lowerback 18.9502 -3.42185 2.48887
upperback 8.11466 -3.19336 6.10261
thorax -1.61707 -1.39719 5.73287
lowerneck -21.0969 -1.08106 -1.38103
upperneck 3.48739 -0.587036 -4.11881
head 4.36866 -0.555095 -1.13359
rclavicle -5.40694e-014 1.59028e-014
rhumerus 29.789 -55.2714 -87.4575
rradius 10.9656
rwrist -9.10999
rhand -11.1445 -46.6833
rfingers 7.12502
rthumb 14.8812 283.871
lclavicle -5.40694e-014 1.59028e-014
lhumerus 89.1972 -8.33508 28.6217
lradius 72.052
lwrist 12.4146
lhand -28.7305 316.98
lfingers 7.12502
lthumb -2.09139 -13.05
rfemur -114.256 -1.69497 18.5325
rtibia 84.3724
rfoot -9.58235 -12.7675
rtoes 25.9207
lfemur -45.2257 50.9445 -14.7576
ltibia 115.494
lfoot -33.0673 12.3662
ltoes -52.774
610
root 2.7924 9.86972 -10.0512 64.4408 60.7746 -309.198
lowerback 18.6555 -3.40084 2.34904
upperback 7.96442 -3.22266 5.75277
thorax -1.6421 -1.40832 5.42352
lowerneck -20.7575 -0.809236 -0.941135
upperneck 3.64941 -0.320853 -4.30821
head 4.3733 -0.427181 -1.23584
rclavicle 3.18055e-015 -5.40694e-014
rhumerus 28.9908 -59.9251 -87.1335
rradius 10.3966
rwrist -2.70777
rhand -9.75107 -45.4972
rfingers 7.12502
rthumb 16.2234 285.162
lclavicle 3.18055e-015 -5.40694e-014
lhumerus 88.4083 -7.68462 31.4698
lradius 73.3682
lwrist 12.4754
lhand -29.1742 317.523
lfingers 7.12502
lthumb -2.51993 -12.5121
rfemur -114.259 -3.38996 18.0879
rtibia 84.7807
rfoot -8.37403 -11.4366
rtoes 23.3929
lfemur -43.221 54.0245 -10.9016
ltibia 116.133
lfoot -35.9698 13.3903
ltoes -52.6896
611
root 2.64038 9.7279 -10.0369 67.5343 63.5951 -305.109
lowerback 18.3583 -3.35436 2.15999
upperback 7.85603 -3.22929 5.3805
thorax -1.62038 -1.41001 5.1138
lowerneck -20.4406 -0.484825 -0.396978
upperneck 3.62266 0.00220793 -4.63815
head 4.32519 -0.273778 -1.39332
rclavicle 1.27222e-014 -3.81667e-014
rhumerus 24.841 -61.7571 -83.2333
rradius 9.81928
rwrist 3.06505
rhand -8.08528 -44.385
rfingers 7.12502
rthumb 17.8268 286.412
lclavicle 1.27222e-014 -3.81667e-014
lhumerus 87.6814 -6.79111 34.0765
lradius 74.4124
lwrist 11.8061
lhand -29.9596 317.922
lfingers 7.12502
lthumb -3.27846 -12.1237
rfemur -114.263 -5.13351 17.487
rtibia 85.2267
rfoot -7.36009 -9.76859
rtoes 20.1056
lfemur -41.3921 57.0228 -6.91923
ltibia 116.694
lfoot -39.004 13.9025
ltoes -52.2367
612
root 2.49805 9.59089 -10.0194 71.5311 66.1971 -300.209
lowerback 18.1301 -3.2929 1.91402
upperback 7.76269 -3.21879 5.02618
thorax -1.61391 -1.40461 4.85809
lowerneck -20.1837 -0.123532 0.17365
upperneck 3.50207 0.380433 -5.06852
head 4.26167 -0.0967496 -1.58217
rclavicle 6.36111e-014 -2.22639e-014
rhumerus 19.7085 -63.3617 -78.6215
rradius 9.37394
rwrist 9.71869
rhand -6.20306 -43.2217
rfingers 7.12502
rthumb 19.6371 287.75
lclavicle 6.36111e-014 -2.22639e-014
lhumerus 87.0253 -5.6886 36.3036
lradius 75.2623
lwrist 11.2222
lhand -31.2607 318.124
lfingers 7.12502
lthumb -4.5349 -11.945
rfemur -114.225 -6.92405 16.7394
rtibia 85.722
rfoot -6.55775 -7.81805
rtoes 15.7904
lfemur -39.7427 59.9109 -2.56228
ltibia 117.405
lfoot -41.4324 13.3539
ltoes -51.5202
613
root 2.36393 9.45861 -10.0002 76.5487 68.6516 -294.399
lowerback 17.9977 -3.22964 1.68332
upperback 7.64584 -3.19051 4.75989
thorax -1.67756 -1.39043 4.69284
lowerneck -19.9596 0.261798 0.692594
upperneck 3.34976 0.813265 -5.57082
head 4.19947 0.103228 -1.78115
rclavicle -2.8625e-014 -1.90833e-014
rhumerus 13.6132 -64.5924 -73.3012
rradius 9.27481
rwrist 14.8536
rhand -4.63473 -42.4239
rfingers 7.12502
rthumb 21.1443 288.709
lclavicle -2.8625e-014 -1.90833e-014
lhumerus 86.413 -4.45707 38.1038
lradius 75.9859
lwrist 11.4051
lhand -32.9541 318.328
lfingers 7.12502
lthumb -6.16993 -11.7818
rfemur -114.138 -8.72895 15.9657
rtibia 86.2908
rfoot -5.94538 -5.69124
rtoes 10.4152
lfemur -38.2881 62.7574 2.48092
ltibia 118.45
lfoot -42.7142 11.5146
ltoes -50.7959
614
root 2.23806 9.331 -9.98043 82.899 70.8994 -287.326
lowerback 17.9496 -3.18169 1.44431
upperback 7.5079 -3.17211 4.58739
thorax -1.7994 -1.3814 4.64107
lowerneck -19.7477 0.670457 1.16505
upperneck 3.18609 1.29589 -6.13003
head 4.14267 0.324773 -1.98672
rclavicle -1.59028e-015 -9.54166e-014
rhumerus 6.97856 -65.3459 -67.6624
rradius 9.58279
rwrist 16.6867
rhand -3.74451 -42.2185
rfingers 7.12502
rthumb 21.9993 289.013
lclavicle -1.59028e-015 -9.54166e-014
lhumerus 85.8018 -3.1583 39.4429
lradius 76.6736
lwrist 12.7325
lhand -34.8093 318.435
lfingers 7.12502
lthumb -7.96074 -11.7347
rfemur -113.99 -10.5829 15.1901
rtibia 86.9881
rfoot -5.53081 -3.4483
rtoes 4.25683
lfemur -36.99 65.5732 8.2124
ltibia 119.837
lfoot -42.6851 8.75004
ltoes -50.3773
